<svg width="100" height="100" viewBox="0 0 100 100" fill="none" xmlns="http://www.w3.org/2000/svg">
<path d="M98.3298 52.51C96.8381 48.4438 94.8465 44.5789 92.4011 41.0041C90.5797 38.2914 88.5647 35.7139 86.3718 33.2917C87.6039 30.4841 88.6201 27.5867 89.4115 24.6246C90.6325 20.4744 91.3334 16.1861 91.4967 11.8626C91.4475 10.6034 90.9269 9.40863 90.0381 8.51521C89.1494 7.62179 87.9573 7.09498 86.6984 7.03923C82.3655 7.21444 78.0707 7.9232 73.9113 9.14947C70.9642 9.98318 68.0769 11.0155 65.2693 12.2395C62.9649 10.1947 60.513 8.32223 57.9337 6.63728C54.355 4.19184 50.4912 2.19241 46.4279 0.683375C45.2151 0.346422 43.92 0.476963 42.7989 1.04917C41.6777 1.62137 40.8122 2.59356 40.3735 3.77338C39.186 7.94511 38.5276 12.2496 38.414 16.5856C38.3005 19.6956 38.4013 22.8097 38.7154 25.9058C35.8275 27.5215 33.0871 29.3877 30.5257 31.4829C27.0906 34.1241 23.994 37.1785 21.3059 40.577C20.6063 41.6294 20.3289 42.9069 20.5291 44.1547C20.7293 45.4025 21.3924 46.529 22.3862 47.3097C24.404 48.748 26.5681 49.969 28.8425 50.9524C23.9187 54.7027 19.291 58.8265 15.0003 63.2873C8.71983 69.6431 0.705931 78.1595 0.655687 81.3751C-0.173338 83.8873 2.41422 89.6151 5.90617 93.107C9.39813 96.599 15.2515 99.2117 17.6632 98.3826C20.8537 98.3826 29.4957 90.3185 35.7511 84.038C40.1441 79.8074 44.2167 75.2562 47.9352 70.4219C48.8245 72.4568 49.9374 74.3862 51.2513 76.1748C52.0347 77.1579 53.1581 77.8116 54.3999 78.0069C55.6416 78.2023 56.9115 77.925 57.9589 77.23C61.3716 74.559 64.4353 71.4699 67.0781 68.0353C69.0823 65.5691 70.8883 62.9482 72.4793 60.1973C75.813 60.5942 79.1743 60.7047 82.5281 60.5239C86.8632 60.3998 91.1664 59.7416 95.3403 58.5644C96.5016 58.1068 97.4511 57.2334 98.0037 56.1142C98.5563 54.995 98.6726 53.7102 98.3298 52.51Z" fill="#FFE236" stroke="#231F20" stroke-miterlimit="10"/>
<path d="M37.9121 54.2441C39.6355 54.9107 41.394 55.4634 43.1877 55.9022C43.6818 57.726 44.268 59.5181 44.9463 61.2783" fill="#FFE236"/>
<path d="M37.9121 54.2441C39.6355 54.9107 41.394 55.4634 43.1877 55.9022C43.6818 57.726 44.268 59.5181 44.9463 61.2783" stroke="#231F20" stroke-miterlimit="10" stroke-linecap="round"/>
<path d="M48.5625 8.16992C50.9742 9.14968 53.1849 10.5716 55.0691 12.3653" stroke="white" stroke-miterlimit="10" stroke-linecap="round"/>
</svg>
