<svg width="24" height="24" viewBox="0 0 24 24" fill="none" xmlns="http://www.w3.org/2000/svg">
<path d="M12 6V6.015L11.985 6.015V6L12 6Z" stroke="#70737C" stroke-linecap="round" stroke-linejoin="round"/>
<path d="M12 6.75C11.8011 6.75 11.6103 6.67098 11.4697 6.53033C11.329 6.38968 11.25 6.19891 11.25 6C11.25 5.80109 11.329 5.61032 11.4697 5.46967C11.6103 5.32902 11.8011 5.25 12 5.25C12.1989 5.25 12.3897 5.32902 12.5303 5.46967C12.671 5.61032 12.75 5.80109 12.75 6C12.75 6.19891 12.671 6.38968 12.5303 6.53033C12.3897 6.67098 12.1989 6.75 12 6.75ZM12 12V12.015L11.985 12.015V12L12 12Z" stroke="#70737C" stroke-linecap="round" stroke-linejoin="round"/>
<path d="M12 12.75C11.8011 12.75 11.6103 12.671 11.4697 12.5303C11.329 12.3897 11.25 12.1989 11.25 12C11.25 11.8011 11.329 11.6103 11.4697 11.4697C11.6103 11.329 11.8011 11.25 12 11.25C12.1989 11.25 12.3897 11.329 12.5303 11.4697C12.671 11.6103 12.75 11.8011 12.75 12C12.75 12.1989 12.671 12.3897 12.5303 12.5303C12.3897 12.671 12.1989 12.75 12 12.75ZM12 17.985V18L11.985 18V17.985L12 17.985Z" stroke="#70737C" stroke-linecap="round" stroke-linejoin="round"/>
<path d="M12 18.7354C11.8011 18.7354 11.6103 18.6563 11.4697 18.5157C11.329 18.375 11.25 18.1843 11.25 17.9854C11.25 17.7864 11.329 17.5957 11.4697 17.455C11.6103 17.3144 11.8011 17.2354 12 17.2354C12.1989 17.2354 12.3897 17.3144 12.5303 17.455C12.671 17.5957 12.75 17.7864 12.75 17.9854C12.75 18.1843 12.671 18.375 12.5303 18.5157C12.3897 18.6563 12.1989 18.7354 12 18.7354Z" stroke="#70737C" stroke-linecap="round" stroke-linejoin="round"/>
</svg>
